<?xml version="1.0" ?>
<!-- Uploaded to: SVG Repo, www.svgrepo.com, Generator: SVG Repo Mixer Tools -->
<svg width="800px" height="800px" viewBox="0 0 64 64" xmlns="http://www.w3.org/2000/svg">
<g id="a"/>
<g id="b"/>
<g id="c"/>
<g id="d"/>
<g id="e"/>
<g id="f"/>
<g id="g"/>
<g id="h"/>
<g id="i"/>
<g id="j"/>
<g id="k"/>
<g id="l"/>
<g id="m"/>
<g id="n"/>
<g id="o"/>
<g id="p"/>
<g id="q"/>
<g id="r"/>
<g id="s"/>
<g id="t"/>
<g id="u"/>
<g id="v"/>
<g id="w"/>
<g id="x"/>
<g id="y"/>
<g id="a`"/>
<g id="aa"/>
<g id="ab"/>
<g id="ac"/>
<g id="ad"/>
<g id="ae"/>
<g id="af"/>
<g id="ag"/>
<g id="ah"/>
<g id="ai">
<path d="M31.47,17.85c-1,.07-1.97,.38-2.83,.9l-3.01,1.81c-1.03,.62-1.8,1.6-2.15,2.76l-2.23,7.44c-.27,.91-1.04,1.58-1.97,1.74l-3.86,.64c-1.58,.26-2.83,1.48-3.12,3.06l-3.25,17.41c-.32,1.71,.99,3.29,2.73,3.29h15.13l7.99-11.3,10.18,11.3h7.17c1.74,0,3.05-1.58,2.73-3.29l-2.01-10.77c-.24-1.26-1.24-2.24-2.51-2.45l-1.73-.29c-1.05-.17-1.91-.93-2.22-1.95l-1.14-3.8c-.38-1.25-1.26-2.28-2.45-2.82l-2.51-1.17c-.77-.36-1.36-1.03-1.61-1.85l-2.55-8.27c-.35-1.15-1.33-1.99-2.52-2.19l-.77-.12c-.49-.08-1-.1-1.5-.07Z" fill="#feccc7" fill-rule="evenodd"/>
<path d="M32.84,41.01c-.65,.03-1.28,.18-1.87,.44l-2.22,.99c-1.13,.5-1.85,1.62-1.85,2.85v11.59h18.17l-2.19-11.02c-.25-1.23-1.13-2.23-2.32-2.63l-5.82-1.96c-.61-.21-1.26-.3-1.9-.27Z" fill="#ffded4" fill-rule="evenodd"/>
<path d="M36.82,22.09h7.25c.99,0,1.79-.8,1.79-1.79s-.8-1.79-1.79-1.79h-1.65c-1.41,0-2.55-1.14-2.55-2.55s1.14-2.55,2.55-2.55h14.03c1.41,0,2.55,1.14,2.55,2.55s-1.14,2.55-2.55,2.55h-3.07c-.99,0-1.78,.8-1.78,1.79s.79,1.79,1.78,1.79h.82c1.41,0,2.55,1.14,2.55,2.55s-1.14,2.55-2.55,2.55h-15.8l-1.58-5.1Z" fill="#d1f1f4" fill-rule="evenodd"/>
<path d="M23.62,7.12h8.1c1.41,0,2.54,1.13,2.54,2.54s-1.13,2.54-2.54,2.54h-8.1c-1.41,0-2.54-1.13-2.54-2.54s1.13-2.54,2.54-2.54Z" fill="#d1f1f4" fill-rule="evenodd"/>
<path d="M19.76,16.43c1.14,0,2.06,.92,2.06,2.06s-.92,2.06-2.06,2.06H10.67c-1,0-1.81,.81-1.81,1.81s.73,1.81,1.61,1.81h2.53c1.4,0,2.53,1.13,2.53,2.53s-1.13,2.53-2.53,2.53H6.67c-.92,0-1.67-.75-1.67-1.67v-9.22c0-1.05,.85-1.91,1.91-1.91h12.85Z" fill="#d1f1f4" fill-rule="evenodd"/>
<path d="M32.06,32.53c-.51,.05-.91,.48-.91,1,0,.03,0,.06,0,.09l.35,3.73c.05,.51,.48,.91,1,.91,.03,0,.06,0,.09,0,.55-.05,.95-.54,.9-1.09l-.35-3.73c-.05-.55-.54-.95-1.09-.9Zm-1.42-15.03c-.55,.05-.95,.54-.9,1.09l.88,9.4c.05,.55,.54,.95,1.09,.9,.55-.05,.95-.54,.9-1.09l-.88-9.4c-.05-.54-.54-.95-1.09-.9Z" fill="#fcbfb5" fill-rule="evenodd"/>
<path d="M46.32,37.15c-.54,.1-.9,.63-.8,1.17l1.42,7.58c.1,.54,.63,.9,1.17,.8,.47-.09,.82-.5,.82-.98,0-.06,0-.12-.02-.18l-1.42-7.58c-.09-.47-.5-.82-.98-.82-.06,0-.12,0-.19,.02Z" fill="#fcbfb5" fill-rule="evenodd"/>
<path d="M21.41,29.77c-.54-.09-1.06,.27-1.16,.81l-2.4,13.67c-.01,.06-.02,.11-.02,.17,0,.48,.35,.9,.83,.99,.06,0,.12,.01,.17,.01,.48,0,.9-.35,.99-.83l2.4-13.67c.09-.54-.27-1.06-.81-1.16Z" fill="#fcbfb5" fill-rule="evenodd"/>
<path d="M48.59,49.29c-.47,.09-.82,.5-.82,.98,0,.06,0,.12,.02,.18l.38,2.05c.1,.54,.63,.9,1.17,.8,.47-.09,.82-.5,.82-.98,0-.06,0-.12-.02-.18l-.38-2.05c-.1-.54-.63-.9-1.17-.8Z" fill="#fcbfb5" fill-rule="evenodd"/>
<path d="M38.5,27.54c-.42,.13-.71,.52-.71,.96,0,.1,.02,.2,.04,.3l2.5,8.09c.16,.52,.73,.82,1.25,.66,.52-.16,.82-.73,.66-1.25l-2.5-8.09c-.13-.42-.52-.71-.96-.71-.1,0-.2,.02-.29,.04Z" fill="#fcbfb5" fill-rule="evenodd"/>
<path d="M34.1,44.73c-.54,.09-.92,.6-.83,1.14l1.73,11.17c.08,.54,.6,.92,1.14,.83,.54-.08,.92-.6,.84-1.14l-1.73-11.16c-.07-.48-.5-.85-.99-.85-.05,0-.1,0-.15,.01Z" fill="#feccc7" fill-rule="evenodd"/>
<path d="M18.03,49.04c-.06-.01-.12-.02-.17-.02-.48,0-.9,.35-.99,.83l-.49,2.78c-.01,.06-.02,.12-.02,.17,0,.48,.35,.9,.83,.98,.54,.09,1.06-.27,1.16-.81l.49-2.78c.01-.06,.02-.11,.02-.17,0-.48-.35-.9-.83-.98Z" fill="#fcbfb5" fill-rule="evenodd"/>
</g>
<g id="aj"/>
<g id="ak"/>
<g id="al"/>
<g id="am"/>
<g id="an"/>
<g id="ao"/>
<g id="ap"/>
<g id="aq"/>
<g id="ar"/>
<g id="as"/>
<g id="at"/>
<g id="au"/>
<g id="av"/>
<g id="aw"/>
<g id="ax"/>
</svg>